<svg id="b3763ed2-191f-4cb4-ae40-76f3638bb4b0" data-name="Duyu09-StdLogo-v02-Layer01" xmlns="http://www.w3.org/2000/svg" viewBox="0 0 500 500">
<!-- Copyright (c) 2021~2023 DuYu (@Duyu09, No.202103180009), Faculty of Computer Science and Technology, Qilu University of Technology (ShanDong Academy of Science) -->
<!-- This avatar file (Duyu09_StdLogo_v2) is used for DuYu's various platform accounts --> <!-- UTC+8 2023/09/08 15:15 -->
<rect width="500" height="500" style="fill: #09097e"/><g><path d="M132.5625,336.11523c0-23.18164,3.19971-38.76757,3.19971-59.90918,0-12.18164-8.81934-24.22265-45.74366-24.60253V232.09619c36.92432-.37988,45.74366-12.4209,45.74366-24.60254,0-20.10058-3.19971-37.769-3.19971-59.90918,0-33.3789,19.021-43.33789,59.3208-43.33789H212.978V121.856H197.23389c-31.08741,0-37.82862,7.36425-37.82862,27.38818,0,17.88184,1.8003,36.82617,1.8003,56.42774,0,21.69677-7.57764,31.69775-29.897,35.53808v1.27979c22.31934,3.84033,29.897,13.8413,29.897,35.53759,0,21.16309-1.8003,37.50489-1.8003,56.42774,0,20.02441,6.74121,27.38867,37.82862,27.38867H212.978v17.6084H191.8833C151.5835,379.45215,132.5625,369.49414,132.5625,336.11523Z" style="fill: #f7f8f8"/><path d="M286.88867,361.84375h15.4834c31.02734,0,38.0293-7.36426,38.0293-27.38867,0-18.92285-1.74024-35.26465-1.74024-56.42774,0-21.69629,7.31739-31.69726,29.63672-35.53759V241.21c-22.31933-3.84033-29.63672-13.84131-29.63672-35.53808,0-19.60157,1.74024-38.5459,1.74024-56.42774,0-20.02393-7.002-27.38818-38.0293-27.38818h-15.4834V104.24658h20.834c40.56054,0,59.06054,9.959,59.06054,43.33789,0,22.14014-2.999,39.8086-2.999,59.90918,0,12.18164,8.81934,24.22266,45.80371,24.60254v19.50733c-36.98437.37988-45.80371,12.42089-45.80371,24.60253,0,21.14161,2.999,36.72754,2.999,59.90918,0,33.37891-18.5,43.33692-59.06054,43.33692h-20.834Z" style="fill: #f7f8f8"/></g></svg>