<svg xmlns="http://www.w3.org/2000/svg" viewBox="0 0 1954.23584 434.76025">
  <g id="b4c3eb70-cdab-4d30-b804-a86850300811" data-name="图层 2">
    <g id="ab4d0664-b94f-4679-9213-e1bdfbf08b69" data-name="图层 1">
      <g>
        <path d="M154.37207,177.36963q-13.44287-16.89258-13.44141-47.04,0-30.52807,14.59327-47.52,14.59058-16.99146,41.28369-16.9917a62.27928,62.27928,0,0,1,16.99365,2.30371,79.94947,79.94947,0,0,1,13.92139,5.18408,48.31654,48.31654,0,0,1,5.76025,3.07227l-1.728,9.21582a44.89564,44.89564,0,0,0-5.56836-2.87988,95.29046,95.29046,0,0,0-12.96142-4.99219,49.75939,49.75939,0,0,0-14.88135-2.3042q-21.31347,0-31.58691,13.728-10.27442,13.73-10.273,41.18408,0,26.88281,9.98486,40.60791,9.98218,13.73,27.84277,13.728,14.40162,0,20.92969-6.91162,6.52589-6.9126,8.44873-13.82422V135.70557H198.15186v-8.25586h37.82763v64.896h-7.105l-3.64844-13.63183a35.90425,35.90425,0,0,1-12.67285,11.13574q-8.06469,4.4143-20.354,4.416Q167.81177,194.26562,154.37207,177.36963Z" transform="translate(-24.51514 0.00244)" style="fill: #ed1c24;stroke: #ed1c24;stroke-linecap: round;stroke-linejoin: round;stroke-width: 3px"/>
        <path d="M269.58154,192.3457V67.5459H284.1748V192.3457Z" transform="translate(-24.51514 0.00244)" style="fill: #ed1c24;stroke: #ed1c24;stroke-linecap: round;stroke-linejoin: round;stroke-width: 3px"/>
        <path d="M418.10645,65.91357a22.958,22.958,0,0,1-12.38526,8.16016V151.6416q0,19.58423-10.75293,31.104-10.75562,11.52026-32.25879,11.52-20.93115,0-31.9707-11.52-11.04418-11.51953-11.041-31.104V67.5459h14.40088v80.832q0,17.4734,7.68116,26.78369,7.67724,9.31494,22.46582,9.312,15.35961,0,23.13818-9.5039,7.77686-9.50391,7.77637-26.5918V67.5459h2.1123q6.52588,0,9.98486-3.936,3.4563-3.9331,3.64844-13.15234H422.811Q422.811,59.86694,418.10645,65.91357Zm-46.084-17.856a79.80724,79.80724,0,0,1-7.96875-3.35987,80.77108,80.77108,0,0,0-7.77685-3.168,20.27784,20.27784,0,0,0-6.43262-1.05616,10.77358,10.77358,0,0,0-5.85645,1.63184,14.22776,14.22776,0,0,0-3.93652,3.45605q-1.34546,1.8274-1.728,2.40039l-4.4165-4.80029a17.69785,17.69785,0,0,1,2.3042-3.55176,24.01207,24.01207,0,0,1,6.43261-5.85595,17.37242,17.37242,0,0,1,9.69678-2.688,24.19542,24.19542,0,0,1,7.68067,1.15185,67.48356,67.48356,0,0,1,8.44873,3.648,55.91667,55.91667,0,0,0,7.105,3.07178,18.6381,18.6381,0,0,0,5.95263.96,11.28988,11.28988,0,0,0,5.28028-1.15185,10.7795,10.7795,0,0,0,3.26416-2.39991,12.02917,12.02917,0,0,0,1.248-1.63183l4.41651,4.7998a11.78787,11.78787,0,0,1-1.91992,2.87988,20.33626,20.33626,0,0,1-5.47266,4.70411,16.6371,16.6371,0,0,1-8.92871,2.208A22.07674,22.07674,0,0,1,372.02246,48.05762Z" transform="translate(-24.51514 0.00244)" style="fill: #ed1c24;stroke: #ed1c24;stroke-linecap: round;stroke-linejoin: round;stroke-width: 3px"/>
        <path d="M557.60059,192.3457,516.89307,67.5459H532.0625l36.291,114.04785L605.2207,67.5459h10.75293L574.49805,192.3457Z" transform="translate(-24.51514 0.00244)" style="fill: #ed1c24;stroke: #ed1c24;stroke-linecap: round;stroke-linejoin: round;stroke-width: 3px"/>
        <path d="M734.92627,65.91357A22.95791,22.95791,0,0,1,722.541,74.07373V151.6416q0,19.58423-10.75293,31.104-10.75562,11.52026-32.25879,11.52-20.93115,0-31.97071-11.52-11.04419-11.51953-11.041-31.104V67.5459h14.40088v80.832q0,17.4734,7.68115,26.78369,7.67724,9.31494,22.46582,9.312,15.35962,0,23.13818-9.5039,7.77686-9.50391,7.77637-26.5918V67.5459h2.11231q6.52587,0,9.98486-3.936,3.4563-3.9331,3.64844-13.15234h11.90527Q739.63086,59.86694,734.92627,65.91357Zm-46.084-17.856a79.80625,79.80625,0,0,1-7.96875-3.35987,80.77216,80.77216,0,0,0-7.77686-3.168,20.27775,20.27775,0,0,0-6.43262-1.05616,10.77352,10.77352,0,0,0-5.85644,1.63184,14.22782,14.22782,0,0,0-3.93653,3.45605q-1.34546,1.8274-1.728,2.40039l-4.41651-4.80029a17.69839,17.69839,0,0,1,2.3042-3.55176,24.012,24.012,0,0,1,6.43262-5.85595,17.37237,17.37237,0,0,1,9.69678-2.688,24.1954,24.1954,0,0,1,7.68066,1.15185,67.48356,67.48356,0,0,1,8.44873,3.648,55.91667,55.91667,0,0,0,7.105,3.07178,18.63812,18.63812,0,0,0,5.95264.96,11.28981,11.28981,0,0,0,5.28027-1.15185,10.77938,10.77938,0,0,0,3.26416-2.39991,12.0305,12.0305,0,0,0,1.248-1.63183l4.4165,4.7998a11.78787,11.78787,0,0,1-1.91992,2.87988,20.33626,20.33626,0,0,1-5.47266,4.70411,16.63708,16.63708,0,0,1-8.92871,2.208A22.07664,22.07664,0,0,1,688.84229,48.05762Z" transform="translate(-24.51514 0.00244)" style="fill: #ed1c24;stroke: #ed1c24;stroke-linecap: round;stroke-linejoin: round;stroke-width: 3px"/>
        <path d="M757.87158,192.3457V67.5459h15.16895l63.75,102.91162-.57617-4.60791V67.5459h10.561V192.3457H834.10205l-66.438-106.36816h-.19189l.96,5.95215v100.416Z" transform="translate(-24.51514 0.00244)" style="fill: #ed1c24;stroke: #ed1c24;stroke-linecap: round;stroke-linejoin: round;stroke-width: 3px"/>
        <path d="M888.24854,177.36963q-13.44288-16.89258-13.44141-47.04,0-30.52807,14.59326-47.52,14.59057-16.99146,41.28369-16.9917a62.27928,62.27928,0,0,1,16.99365,2.30371,79.94885,79.94885,0,0,1,13.92139,5.18408,48.31736,48.31736,0,0,1,5.76026,3.07227l-1.728,9.21582a44.89564,44.89564,0,0,0-5.56836-2.87988,95.29113,95.29113,0,0,0-12.96143-4.99219,49.75939,49.75939,0,0,0-14.88135-2.3042q-21.31347,0-31.58691,13.728-10.27441,13.73-10.27295,41.18408,0,26.88281,9.98486,40.60791,9.98219,13.73,27.84278,13.728,14.4016,0,20.92969-6.91162,6.52587-6.9126,8.44873-13.82422V135.70557H932.02832v-8.25586h37.82715v64.896H962.751l-3.64844-13.63183a35.90443,35.90443,0,0,1-12.67285,11.13574q-8.06471,4.4143-20.354,4.416Q901.68823,194.26562,888.24854,177.36963Z" transform="translate(-24.51514 0.00244)" style="fill: #ed1c24;stroke: #ed1c24;stroke-linecap: round;stroke-linejoin: round;stroke-width: 3px"/>
        <path d="M1113.28613,192.3457V76.76172H1077.7627V67.5459h85.832v9.21582h-35.71485v115.584Z" transform="translate(-24.51514 0.00244)" style="fill: #ed1c24;stroke: #ed1c24;stroke-linecap: round;stroke-linejoin: round;stroke-width: 3px"/>
        <path d="M1158.60156,192.3457l42.05176-124.7998h17.08984l41.28418,124.7998h-15.16992l-13.05664-38.3999h-48.96484l-13.05664,38.3999Zm28.99512-140.54394-3.64844-6.144,21.12207-21.88818h7.48828l20.73829,21.88818-3.45606,6.14405-21.12207-18.624Zm-3.07227,94.272h43.78028l-21.69824-67.39209Z" transform="translate(-24.51514 0.00244)" style="fill: #ed1c24;stroke: #ed1c24;stroke-linecap: round;stroke-linejoin: round;stroke-width: 3px"/>
        <path d="M1282.06836,192.3457l.57617-124.7998.38379.57568-.19238-.57568h17.8584L1344.666,174.48975h.1914L1388.83008,67.5459h16.89746l.57617,124.7998h-14.21l-.57617-106.94384h-.19141l-43.2041,106.94384h-11.71289L1293.0127,85.40186l-.38379,106.94384Z" transform="translate(-24.51514 0.00244)" style="fill: #ed1c24;stroke: #ed1c24;stroke-linecap: round;stroke-linejoin: round;stroke-width: 3px"/>
        <path d="M1534.17969,134.36182h-13.249v-8.064h13.249V67.5459h38.01953q26.87988,0,41.76367,16.22363,14.87843,16.22754,14.88086,46.56006,0,30.14576-14.68945,46.08008-14.688,15.939-41.95508,15.936h-38.01953Zm38.21093,48.76806q40.70655,0,40.708-52.80029,0-53.56787-40.89941-53.56787h-23.42676v49.53613h36.292v8.064h-36.292v48.76806Z" transform="translate(-24.51514 0.00244)" style="fill: #ed1c24;stroke: #ed1c24;stroke-linecap: round;stroke-linejoin: round;stroke-width: 3px"/>
        <path d="M1643.81836,192.3457l42.05176-124.7998H1702.96l41.28418,124.7998h-15.16992l-13.05664-38.3999h-48.96485l-13.05664,38.3999Zm28.99512-136.896-3.64844-6.144,21.12207-21.88818h7.48828l20.73828,21.88818-3.45605,6.14405-21.12207-18.624Zm-3.07227,90.624h43.78027l-21.69824-67.39209Zm44.74024-115.584L1694.31934,4.56982l11.90527-3.07226,15.9375,27.45605Z" transform="translate(-24.51514 0.00244)" style="fill: #ed1c24;stroke: #ed1c24;stroke-linecap: round;stroke-linejoin: round;stroke-width: 3px"/>
        <path d="M1776.78906,182.74561q-11.04492-11.51953-11.041-31.104V67.5459h14.40136v80.832q0,17.4734,7.68067,26.78369,7.67724,9.31494,22.46582,9.312,15.36034,0,23.13769-9.5039,7.77685-9.50391,7.77735-26.5918V67.5459h10.56054v84.0957q0,19.58423-10.75293,31.104-10.75634,11.52026-32.25878,11.52Q1787.82861,194.26562,1776.78906,182.74561Z" transform="translate(-24.51514 0.00244)" style="fill: #ed1c24;stroke: #ed1c24;stroke-linecap: round;stroke-linejoin: round;stroke-width: 3px"/>
        <path d="M26.01514,402.3457V277.5459H40.6084v67.96777l15.16943-13.44043L97.82959,277.5459h11.71289L65.7627,333.22559l49.73242,69.12011H97.25342L55.00977,344.3623,40.6084,356.458V402.3457Z" transform="translate(-24.51514 0.00244)" style="fill: #ed1c24;stroke: #ed1c24;stroke-linecap: round;stroke-linejoin: round;stroke-width: 3px"/>
        <path d="M138.15088,402.3457V277.5459h14.59326V402.3457Z" transform="translate(-24.51514 0.00244)" style="fill: #ed1c24;stroke: #ed1c24;stroke-linecap: round;stroke-linejoin: round;stroke-width: 3px"/>
        <path d="M189.80322,402.3457V277.5459h67.20606v9.21582h-52.6128v48h48.19629v8.832H204.39648v49.53613H261.2334v9.21582Zm14.78516-140.54394-3.64844-6.144L222.062,233.76953h7.48877l20.73779,21.88818-3.45654,6.144-21.12158-18.624Z" transform="translate(-24.51514 0.00244)" style="fill: #ed1c24;stroke: #ed1c24;stroke-linecap: round;stroke-linejoin: round;stroke-width: 3px"/>
        <path d="M287.92188,402.3457V277.5459h15.16894l63.75,102.91211-.57617-4.6084V277.5459h10.561V402.3457H364.15234l-66.438-106.36816h-.1919l.96,5.95215v100.416Z" transform="translate(-24.51514 0.00244)" style="fill: #ed1c24;stroke: #ed1c24;stroke-linecap: round;stroke-linejoin: round;stroke-width: 3px"/>
        <path d="M504.70117,344.3623H491.45166v-8.06445h13.24951V277.5459h38.019q26.88135,0,41.76417,16.22363,14.87768,16.22754,14.88134,46.55957,0,30.14649-14.68945,46.08008-14.68946,15.94043-41.95606,15.93652h-38.019Zm38.21143,48.76758q40.7058,0,40.70752-52.80078,0-53.56641-40.89991-53.56738H519.29443v49.53613h36.291v8.06445h-36.291v48.76758Z" transform="translate(-24.51514 0.00244)" style="fill: #ed1c24;stroke: #ed1c24;stroke-linecap: round;stroke-linejoin: round;stroke-width: 3px"/>
        <path d="M629.50977,430.9541a8.832,8.832,0,0,1,5.95214-15.36035,9.182,9.182,0,0,1,6.14454,2.30371,9.78376,9.78376,0,0,1,0,13.05664,9.182,9.182,0,0,1-6.14454,2.30371A8.47455,8.47455,0,0,1,629.50977,430.9541Zm-1.53614-28.6084V277.5459h14.59326V402.3457Z" transform="translate(-24.51514 0.00244)" style="fill: #ed1c24;stroke: #ed1c24;stroke-linecap: round;stroke-linejoin: round;stroke-width: 3px"/>
        <path d="M679.626,402.3457V277.5459h15.16894l63.75,102.91211-.57617-4.6084V277.5459h10.561V402.3457H755.85645l-66.438-106.36816h-.1919l.96,5.95215v100.416Z" transform="translate(-24.51514 0.00244)" style="fill: #ed1c24;stroke: #ed1c24;stroke-linecap: round;stroke-linejoin: round;stroke-width: 3px"/>
        <path d="M805.39453,402.3457V277.5459h14.59326v56.06445H877.0166V277.5459h14.59375V402.3457H877.0166V342.44238H819.98779V402.3457Z" transform="translate(-24.51514 0.00244)" style="fill: #ed1c24;stroke: #ed1c24;stroke-linecap: round;stroke-linejoin: round;stroke-width: 3px"/>
        <path d="M1025.24609,387.46582q-14.40087-16.79883-14.40136-46.36816,0-19.77393,6.625-34.55957,6.624-14.78321,18.81738-22.752,12.1919-7.96581,28.32227-7.96875a62.26957,62.26957,0,0,1,16.99414,2.30469,79.881,79.881,0,0,1,13.92089,5.18359,48.31992,48.31992,0,0,1,5.76075,3.07227l-1.72852,9.21582a44.89564,44.89564,0,0,0-5.56836-2.87988,95.35787,95.35787,0,0,0-12.96094-4.99219,49.76789,49.76789,0,0,0-14.88183-2.30469q-18.627,0-29.18653,14.11328-10.563,14.11085-10.56054,41.1836,0,26.68946,10.75293,40.32031,10.75049,13.63476,30.14648,13.63086a36.4671,36.4671,0,0,0,17.85742-4.22266,49.05009,49.05009,0,0,0,12.19336-9.02539q4.50879-4.79589,4.5127-5.56738l5.376,6.14355q0,.96387-4.99218,6.625-4.99512,5.66455-14.30567,10.65625-9.31494,4.98927-22.37011,4.99121Q1039.64747,404.26562,1025.24609,387.46582Z" transform="translate(-24.51514 0.00244)" style="fill: #ed1c24;stroke: #ed1c24;stroke-linecap: round;stroke-linejoin: round;stroke-width: 3px"/>
        <path d="M1129.89453,402.3457V277.5459h14.59277v56.06445h57.0293V277.5459h14.59375V402.3457H1201.5166V342.44238h-57.0293V402.3457Z" transform="translate(-24.51514 0.00244)" style="fill: #ed1c24;stroke: #ed1c24;stroke-linecap: round;stroke-linejoin: round;stroke-width: 3px"/>
        <path d="M1253.166,402.3457V277.5459h14.59277V402.3457Zm8.25683-135.55175-7.29687-.96094,14.78515-27.83936,12.09766,2.87989Z" transform="translate(-24.51514 0.00244)" style="fill: #ed1c24;stroke: #ed1c24;stroke-linecap: round;stroke-linejoin: round;stroke-width: 3px"/>
        <path d="M1395.83008,402.3457V277.5459h14.59277v56.06445h57.0293V277.5459h14.59375V402.3457h-14.59375V342.44238h-57.0293V402.3457Z" transform="translate(-24.51514 0.00244)" style="fill: #ed1c24;stroke: #ed1c24;stroke-linecap: round;stroke-linejoin: round;stroke-width: 3px"/>
        <path d="M1615.97363,275.91309a22.94589,22.94589,0,0,1-12.38476,8.16015V361.6416q0,19.585-10.75293,31.10352-10.75635,11.521-32.25879,11.5205-20.93115,0-31.9707-11.5205-11.04494-11.51953-11.041-31.10352V277.5459h14.40137v80.832q0,17.47266,7.68066,26.7832,7.67724,9.31641,22.46582,9.3125,15.36036,0,23.1377-9.5039,7.77685-9.50391,7.77734-26.5918v-80.832h2.1123q6.52442,0,9.98438-3.93555,3.457-3.93457,3.64844-13.15234h11.90527Q1620.67871,269.8667,1615.97363,275.91309Z" transform="translate(-24.51514 0.00244)" style="fill: #ed1c24;stroke: #ed1c24;stroke-linecap: round;stroke-linejoin: round;stroke-width: 3px"/>
        <path d="M1730.12793,304.42578q7.10155,14.9751,7.10449,35.71192,0,19.77831-6.43262,34.27148-6.435,14.499-18.52929,22.17676-12.09669,7.68017-28.80274,7.67968-16.70508,0-28.707-7.67968-12.00146-7.67726-18.33691-22.17676-6.33692-14.49316-6.33692-34.27148,0-19.77247,6.33692-34.27149,6.33544-14.49609,18.33691-22.27246,11.99854-7.77686,28.707-7.77637a57.67909,57.67909,0,0,1,14.40137,1.72852q5.94873-.38379,9.12109-4.32031,3.16846-3.93311,3.36036-12.76758h11.90429a25.62041,25.62041,0,0,1-3.26367,13.34375,21.47165,21.47165,0,0,1-9.02539,8.35156Q1723.022,289.45264,1730.12793,304.42578ZM1711.79,381.03418q9.8877-14.0127,9.88867-40.89648,0-26.68506-9.88867-40.89649-9.89209-14.20605-28.32227-14.207-18.24462,0-28.03418,14.207-9.79394,14.21191-9.793,40.89649,0,26.88281,9.69629,40.89648,9.69434,14.0171,28.13086,14.01562Q1701.90138,395.0498,1711.79,381.03418Zm-34.27442-117.12109-7.29687-.959,14.78516-27.84033,12.09668,2.87988Z" transform="translate(-24.51514 0.00244)" style="fill: #ed1c24;stroke: #ed1c24;stroke-linecap: round;stroke-linejoin: round;stroke-width: 3px"/>
        <path d="M1765.26562,402.3457V277.5459h15.16895l63.75,102.91211-.57617-4.6084V277.5459h10.56152V402.3457h-12.67383l-66.4375-106.36816h-.19238l.96,5.95215v100.416Z" transform="translate(-24.51514 0.00244)" style="fill: #ed1c24;stroke: #ed1c24;stroke-linecap: round;stroke-linejoin: round;stroke-width: 3px"/>
        <path d="M1895.64355,387.37012q-13.44286-16.89258-13.4414-47.041,0-30.52734,14.59375-47.51953,14.58984-16.99218,41.2832-16.99219a62.25737,62.25737,0,0,1,16.99317,2.30469,79.86349,79.86349,0,0,1,13.92187,5.18359,48.32017,48.32017,0,0,1,5.76074,3.07227l-1.72851,9.21582a44.89564,44.89564,0,0,0-5.56836-2.87988,95.35838,95.35838,0,0,0-12.96094-4.99219,49.768,49.768,0,0,0-14.88184-2.30469q-21.31347,0-31.58691,13.72852-10.27441,13.73-10.27246,41.18359,0,26.88282,9.98437,40.6084,9.98292,13.73,27.84278,13.72754,14.40087,0,20.92969-6.91113,6.52587-6.9126,8.44921-13.82422V345.70605h-25.53906V337.4502H1977.251v64.8955h-7.1045l-3.64843-13.63183a35.89408,35.89408,0,0,1-12.67383,11.13574q-8.064,4.41357-20.35352,4.416Q1909.08252,404.26562,1895.64355,387.37012Z" transform="translate(-24.51514 0.00244)" style="fill: #ed1c24;stroke: #ed1c24;stroke-linecap: round;stroke-linejoin: round;stroke-width: 3px"/>
      </g>
    </g>
  </g>
</svg>
