<svg xmlns="http://www.w3.org/2000/svg" viewBox="0 0 255.93478 255.93478">
  <g id="e38effae-f79f-47b5-9562-4c295a73751f" data-name="图层 2">
    <g id="b604c719-155f-41c6-937e-68e449610613" data-name="Layer 1">
      <g>
        <rect width="255.93478" height="255.93478" style="fill: #631d76"/>
        <g>
          <path d="M164.70463,97.79836a5.56025,5.56025,0,0,0,1.968-4.36008,5.2704,5.2704,0,0,0-1.57294-3.92842,12.22638,12.22638,0,0,0-3.951-2.37057,11.888,11.888,0,0,1-3.21559-1.7793,2.86666,2.86666,0,0,1-.85884-2.21075,2.66836,2.66836,0,0,1,1.02993-2.15846,4.20127,4.20127,0,0,1,2.72655-.83121,8.05632,8.05632,0,0,1,4.8574,1.52661V78.2334a10.16878,10.16878,0,0,0-4.57749-1.00187,8.15219,8.15219,0,0,0-5.4393,1.77357,5.909,5.909,0,0,0-.75109,8.29976,11.27,11.27,0,0,0,3.82343,2.42816,14.20721,14.20721,0,0,1,3.51292,1.96506,2.64641,2.64641,0,0,1,.902,2.0675q0,2.9868-4.07465,2.99159a8.62284,8.62284,0,0,1-5.56554-2.05071v3.68486a10.5356,10.5356,0,0,0,5.31454,1.28857A8.62177,8.62177,0,0,0,164.70463,97.79836Z" style="fill: #fff"/>
          <path d="M196.94281,99.16663h3.42854V80.65817h5.02V77.75393h-5.02V74.45375c0-3.025,1.19251-4.53647,3.59114-4.53647a4.5991,4.5991,0,0,1,2.27748.56321V67.385a6.72451,6.72451,0,0,0-2.483-.37193,6.56928,6.56928,0,0,0-4.62488,1.73467,7.09215,7.09215,0,0,0-2.18928,5.53494v3.47127h-3.6413v2.90424h3.6413Z" style="fill: #fff"/>
          <path d="M87.67707,72.3193a2.17076,2.17076,0,0,0,1.59632-.65076,2.22868,2.22868,0,0,0,0-3.16438,2.30163,2.30163,0,0,0-3.1767,0,2.27633,2.27633,0,0,0,0,3.18669A2.21277,2.21277,0,0,0,87.67707,72.3193Z" style="fill: #fff"/>
          <path d="M104.84446,99.67989a11.00145,11.00145,0,0,0,5.86416-1.506V94.91644a8.61541,8.61541,0,0,1-5.26737,1.84073,6.80082,6.80082,0,0,1-5.29521-2.17356,8.4812,8.4812,0,0,1-1.97993-5.91792,8.84338,8.84338,0,0,1,2.15867-6.2246,6.85418,6.85418,0,0,1,5.32858-2.28152,8.686,8.686,0,0,1,5.10265,1.67708v-3.5176a10.94288,10.94288,0,0,0-4.95494-1.08752A10.559,10.559,0,0,0,97.68175,80.472a11.9411,11.9411,0,0,0-3.02495,8.5023,10.798,10.798,0,0,0,2.758,7.65451A9.652,9.652,0,0,0,104.84446,99.67989Z" style="fill: #fff"/>
          <path d="M226.71944,79.46629h.66565c.46863,0,.89816.43314,1.29793,1.30877l.78912,1.7385h1.23629l-.95256-1.93191c-.39531-.79741-.79869-1.24373-1.20122-1.34043v-.02784a2.44879,2.44879,0,0,0,1.35637-.71219,1.78734,1.78734,0,0,0,.48712-1.26966,1.74738,1.74738,0,0,0-.59594-1.36849,3.04086,3.04086,0,0,0-2.06112-.608h-2.04136v7.25857h1.01972Zm0-3.33928h.902a2.17279,2.17279,0,0,1,1.33576.31794,1.11092,1.11092,0,0,1,.34855.90921c0,.8293-.49541,1.24373-1.4994,1.24373h-1.08689Z" style="fill: #fff"/>
          <path d="M210.942,93.325q0,6.31376,5.60572,6.31769a6.4549,6.4549,0,0,0,3.21835-.69349V96.02457a3.63789,3.63789,0,0,1-2.21627.69349,2.95456,2.95456,0,0,1-2.44772-.91834,4.89409,4.89409,0,0,1-.72771-3.06024V80.65817h5.3917V77.75393h-5.3917V71.41754c-1.20122.39042-2.34017.766-3.43237,1.10983v5.22656h-3.67551v2.90424H210.942Z" style="fill: #fff"/>
          <path d="M227.91514,84.59381a5.591,5.591,0,0,0,4.08272-1.63415,5.74535,5.74535,0,0,0-.01105-8.08765,5.93208,5.93208,0,0,0-8.11571.07248,5.48582,5.48582,0,0,0-1.64265,4.02894,5.41766,5.41766,0,0,0,1.61588,4.03278A5.5921,5.5921,0,0,0,227.91514,84.59381Zm-3.58284-9.2181a5.18285,5.18285,0,1,1-1.43352,3.58306A4.876,4.876,0,0,1,224.3323,75.37571Z" style="fill: #fff"/>
          <rect x="85.92305" y="77.75393" width="3.41898" height="21.4127" style="fill: #fff"/>
          <path d="M139.01178,99.67989a10.15177,10.15177,0,0,0,7.78288-3.09381,11.56245,11.56245,0,0,0,2.88064-8.20858q0-5.204-2.68-8.18053a9.6237,9.6237,0,0,0-7.48343-2.96544,10.65384,10.65384,0,0,0-7.77076,2.84069q-3.14173,3.05949-3.13738,8.6364a11.15073,11.15073,0,0,0,2.75822,7.87746A9.84512,9.84512,0,0,0,139.01178,99.67989ZM134.147,82.2496a6.61547,6.61547,0,0,1,5.11774-2.09,6.33661,6.33661,0,0,1,5.04314,2.06771q1.85157,2.15571,1.85455,6.27115a9.3781,9.3781,0,0,1-1.7385,6.06648,6.25676,6.25676,0,0,1-5.15919,2.19226,6.62927,6.62927,0,0,1-5.20318-2.16612,8.6561,8.6561,0,0,1-1.941-6.0108A9.0965,9.0965,0,0,1,134.147,82.2496Z" style="fill: #fff"/>
          <path d="M188.24349,96.58608a11.549,11.549,0,0,0,2.894-8.20858c0-3.46935-.90644-6.19676-2.69234-8.18053A9.60011,9.60011,0,0,0,180.97,77.23153a10.65472,10.65472,0,0,0-7.778,2.84069q-3.12644,3.05949-3.13484,8.6364a11.14832,11.14832,0,0,0,2.75908,7.87746A9.84639,9.84639,0,0,0,180.47,99.67989,10.11117,10.11117,0,0,0,188.24349,96.58608ZM173.575,88.58025a9.11222,9.11222,0,0,1,2.01713-6.33065,6.64524,6.64524,0,0,1,5.125-2.09,6.32687,6.32687,0,0,1,5.03953,2.06771q1.8589,2.15571,1.85943,6.27115a9.38434,9.38434,0,0,1-1.7385,6.06648,6.25265,6.25265,0,0,1-5.16046,2.19226,6.67893,6.67893,0,0,1-5.21317-2.16612A8.70764,8.70764,0,0,1,173.575,88.58025Z" style="fill: #fff"/>
          <polygon points="137.851 151.859 166.246 151.859 166.246 143.528 137.851 143.528 137.851 117.378 168.497 117.378 168.497 109.047 128.643 109.047 128.643 187.659 170.306 187.659 170.306 179.328 137.851 179.328 137.851 151.859" style="fill: #fff"/>
          <polygon points="178.958 117.378 201.646 117.378 201.646 187.659 210.857 187.659 210.857 117.378 233.5 117.378 233.5 109.047 178.958 109.047 178.958 117.378" style="fill: #fff"/>
          <path d="M28.30508,176.5336a5.7059,5.7059,0,0,0-4.2725,1.80886,6.32057,6.32057,0,0,0,0,8.74033,5.69367,5.69367,0,0,0,4.2725,1.83881,6.2275,6.2275,0,0,0,6.19783-6.19315,5.99673,5.99673,0,0,0-1.80906-4.36177A5.90843,5.90843,0,0,0,28.30508,176.5336Z" style="fill: #fff"/>
          <path d="M121.72813,78.55135a7.48077,7.48077,0,0,0-2.31935,3.61812h-.08544V77.75393h-3.42387v21.4127h3.42387V88.24743a9.37916,9.37916,0,0,1,1.611-5.83057,4.58844,4.58844,0,0,1,6.12811-1.19V77.67211a5.56693,5.56693,0,0,0-2.05262-.29011A5.11948,5.11948,0,0,0,121.72813,78.55135Z" style="fill: #fff"/>
          <polygon points="51.166 73.221 51.241 73.221 62.379 99.167 64.095 99.167 75.217 73.221 75.298 73.221 75.004 99.167 78.52 99.167 78.52 69.185 74.117 69.185 63.286 93.682 63.139 93.682 52.58 69.185 47.94 69.185 47.94 99.167 51.329 99.167 51.166 73.221" style="fill: #fff"/>
          <polygon points="102.079 175.441 59.874 109.047 47.916 109.047 47.916 187.659 57.131 187.659 57.131 120.23 100.057 187.659 111.235 187.659 111.235 109.047 102.079 109.047 102.079 175.441" style="fill: #fff"/>
        </g>
      </g>
    </g>
  </g>
</svg>
