<svg id="b5f9d50e-67d1-41f2-9287-3ac0ce25503b" data-name="图层 1" xmlns="http://www.w3.org/2000/svg" viewBox="0 0 623.62205 307.24886">
  <g>
    <path d="M299.59549,167.04661l-65.59595-14.26478A13.89082,13.89082,0,0,1,223.255,139.84c-.02747-.18438-.02747-70.47395,0-70.65378a13.894,13.894,0,0,1,10.74452-12.9464L299.59549,41.975l7.03626-27.80811H230.18767a48.66048,48.66048,0,0,0-48.667,48.45455V146.3959a48.66353,48.66353,0,0,0,48.667,48.45882h76.44408Z" transform="translate(-15.68885 -14.16691)" style="fill: #373c41"/>
    <path d="M355.42023,167.04661l65.587-14.26478A13.88554,13.88554,0,0,0,431.74882,139.84c.03342-.18438.03342-70.47395,0-70.65378a13.88875,13.88875,0,0,0-10.74154-12.9464L355.42023,41.975,348.381,14.16691h76.43776a48.64966,48.64966,0,0,1,48.66111,48.45455V146.3959a48.6527,48.6527,0,0,1-48.66111,48.45882H348.381Z" transform="translate(-15.68885 -14.16691)" style="fill: #373c41"/>
    <rect x="283.90664" y="86.86421" width="55.8266" height="6.95539" style="fill: #373c41"/>
    <path d="M512.29031,321.41549h-8.29883a18.90032,18.90032,0,0,1-18.87883-18.87995V278.13183a18.88712,18.88712,0,0,1,18.87883-18.87113h8.29883a18.89037,18.89037,0,0,1,18.88515,18.87113v24.40371a18.90357,18.90357,0,0,1-18.88515,18.87995m-8.29883-51.33815a8.06277,8.06277,0,0,0-8.05522,8.05449v24.40371a8.05529,8.05529,0,0,0,8.05522,8.04567h8.29883a8.05125,8.05125,0,0,0,8.05523-8.04567V278.13183a8.05872,8.05872,0,0,0-8.05523-8.05449Z" transform="translate(-15.68885 -14.16691)" style="fill: #373c41"/>
    <rect x="81.11968" y="224.52803" width="10.81507" height="81.31241" style="fill: #373c41"/>
    <rect x="104.61954" y="246.49321" width="10.82918" height="59.34723" style="fill: #373c41"/>
    <path d="M125.72336,238.6954a7.26491,7.26491,0,1,0,7.26129,7.26445,7.26411,7.26411,0,0,0-7.26129-7.26445" transform="translate(-15.68885 -14.16691)" style="fill: #373c41"/>
    <path d="M57.99179,238.69605H44.80123c-4.98866,8.82438-16.89251,33.031-29.11238,81.3113H26.95659c1.9076-7.37158,3.78141-14.13378,5.64-20.3411H72.12223q2.765,9.29593,5.63071,20.3411H89.02068c-12.22284-48.2803-24.12335-72.48692-29.11534-81.3113ZM36.00071,288.75073c6.13277-18.93286,11.6298-31.49845,15.31689-38.96909h2.08993c3.699,7.443,9.17483,19.9821,15.31986,38.96909Z" transform="translate(-15.68885 -14.16691)" style="fill: #373c41"/>
    <rect x="448.59168" y="224.44744" width="10.8095" height="81.39299" style="fill: #373c41"/>
    <rect x="128.12868" y="224.52803" width="10.81952" height="81.31241" style="fill: #373c41"/>
    <path d="M168.61042,321.41577a93.46235,93.46235,0,0,1-20.14475-2.583l2.537-10.521c16.86243,4.07208,24.64694,1.83862,26.80372.14353,2.15974-1.71265,2.32722-4.574,2.32425-7.88348V282.17652h10.82658v18.37771c.00594,3.66815.0182,11.29215-6.44916,16.3858-3.77807,2.98609-9.03781,4.47574-15.89767,4.47574" transform="translate(-15.68885 -14.16691)" style="fill: #373c41"/>
    <path d="M190.95725,297.54958H180.13067V279.15424c.003-3.12172-.137-5.63239-2.02012-7.112-1.68516-1.32756-7.52309-3.93859-25.44682.3939l-2.543-10.521c16.80412-4.063,28.151-3.52453,34.69146,1.63327,6.16323,4.86091,6.151,12.13511,6.145,15.63225Z" transform="translate(-15.68885 -14.16691)" style="fill: #373c41"/>
    <path d="M451.312,306.994c-7.60516,2.99583-22.33458,5.23718-34.82218,2.15167-6.90257-1.71274-7.4076-7.07562-7.42877-8.0621V258.94645c.02117-.98657.5262-6.34973,7.42877-8.0621,12.667-3.12171,27.60359-.78149,35.10515,2.27849l2.66811-10.5581a73.4365,73.4365,0,0,0-24.53739-3.9902,67.03267,67.03267,0,0,0-15.83715,1.7677C401.46188,243.449,398.216,253.889,398.2282,258.97411v42.0818c-.01225,5.09394,3.23368,15.51751,15.66038,18.59272a67.02856,67.02856,0,0,0,15.83715,1.76686A74.01,74.01,0,0,0,453.97719,317.55Z" transform="translate(-15.68885 -14.16691)" style="fill: #373c41"/>
    <rect x="558.83934" y="246.49321" width="10.82843" height="59.34723" style="fill: #373c41"/>
    <path d="M562.50848,321.41577c-6.86543,0-12.11923-1.48965-15.89767-4.47574-6.47961-5.09365-6.4551-12.72647-6.45213-16.3858V260.57879h10.82658v39.99308c-.00891,3.30061.15819,6.17083,2.32128,7.88348,2.14786,1.69509,8.28026,3.92855,25.13935-.14353l2.543,10.51214a80.24542,80.24542,0,0,1-18.48038,2.59181" transform="translate(-15.68885 -14.16691)" style="fill: #373c41"/>
    <rect x="612.81144" y="224.52803" width="10.81061" height="81.31241" style="fill: #373c41"/>
    <path d="M616.69076,321.41577c-6.85949,0-12.11923-1.48965-15.898-4.46692-6.47627-5.10247-6.45473-12.73529-6.44582-16.39462V282.17652h10.82027v18.39535c-.00594,3.30061.1619,6.17083,2.32759,7.88348,2.14786,1.69509,8.2862,3.92855,25.14232-.14353l2.537,10.521a80.16133,80.16133,0,0,1-18.48335,2.583" transform="translate(-15.68885 -14.16691)" style="fill: #373c41"/>
    <path d="M605.16717,297.55812H594.3469v-18.3765c-.00891-3.49807-.03045-10.76373,6.13612-15.63346,6.54013-5.1578,17.89588-5.68623,34.69109-1.633l-2.537,10.52068c-17.92633-4.32367-23.7676-1.71264-25.45276-.38508-1.87381,1.48844-2.02309,3.99113-2.01715,7.10319Z" transform="translate(-15.68885 -14.16691)" style="fill: #373c41"/>
    <path d="M238.967,263.1265c-10.69586-7.65046-30.6943-1.95421-35.54036-.40273l2.65289,10.51976c6.29394-2.15195,21.04489-5.28258,26.5876-1.30992,1.00374.71827,2.16568,1.96544,2.16568,5.26493v42.80909h10.82361V277.19854c0-7.67729-3.64438-11.88389-6.68942-14.072" transform="translate(-15.68885 -14.16691)" style="fill: #373c41"/>
    <path d="M219.31245,321.41577c-10.99108,0-18.38346-5.15753-20.29366-14.13555-1.13186-5.34431-.31342-10.22407,2.35433-14.12487,2.96928-4.36776,8.00992-7.16622,14.97-8.32371a54.24985,54.24985,0,0,1,24.89018,1.5603l-3.58349,10.20644a44.14845,44.14845,0,0,0-19.53611-1.0848c-2.70117.43921-6.24232,1.45317-7.809,3.74836-1.20464,1.75925-1.04014,4.11721-.69033,5.776.32233,1.525,1.17419,5.54381,9.69806,5.54381,5.871,0,15.07923-1.11246,18.06373-2.12641l3.47988,10.23381c-4.47471,1.5241-14.95446,2.72661-21.54361,2.72661" transform="translate(-15.68885 -14.16691)" style="fill: #373c41"/>
    <path d="M353.47958,263.1265c-10.69289-7.65046-30.69765-1.95421-35.53442-.40273l2.64955,10.51976c6.29393-2.15195,21.039-5.28258,26.58165-1.30992,1.01006.71827,2.16272,1.96544,2.16272,5.26493v42.80909H360.172V277.19854c0-7.67729-3.64736-11.88389-6.69239-14.072" transform="translate(-15.68885 -14.16691)" style="fill: #373c41"/>
    <path d="M333.82166,321.41577c-10.99405,0-18.38605-5.15753-20.28734-14.13555-1.12889-5.34431-.31973-10.22407,2.34541-14.12487,2.9782-4.36776,8.02181-7.16622,14.976-8.32371a54.22294,54.22294,0,0,1,24.88386,1.5603l-3.58348,10.20644a44.15618,44.15618,0,0,0-19.53612-1.0848c-2.6982.43921-6.24529,1.45317-7.79974,3.74836-1.20762,1.75925-1.04645,4.11721-.69665,5.776.31936,1.525,1.17123,5.54381,9.69806,5.54381,5.87432,0,15.08554-1.11246,18.06076-2.12641l3.4862,10.23381c-4.47175,1.5241-14.96077,2.72661-21.547,2.72661" transform="translate(-15.68885 -14.16691)" style="fill: #373c41"/>
    <rect x="242.65609" y="224.52803" width="10.81507" height="81.31241" style="fill: #373c41"/>
    <path d="M283.12855,321.41577a93.5768,93.5768,0,0,1-20.14438-2.583l2.54334-10.521c16.86206,4.07208,24.64955,1.83862,26.79741.14353,2.16606-1.71265,2.33316-4.574,2.33316-7.88348l-.003-18.39535h10.81767v18.37771c.00891,3.66815.02116,11.29215-6.44619,16.3858-3.7751,2.98609-9.03818,4.47574-15.898,4.47574" transform="translate(-15.68885 -14.16691)" style="fill: #373c41"/>
    <path d="M305.47278,297.54958H294.65511l.003-18.39534c0-3.12172-.143-5.63239-2.02309-7.112-1.68516-1.32756-7.52606-3.93859-25.44682.3939l-2.54-10.521c16.80449-4.063,28.14836-3.52453,34.68849,1.63327,6.16025,4.86091,6.145,12.13511,6.13612,15.63225Z" transform="translate(-15.68885 -14.16691)" style="fill: #373c41"/>
  </g>
</svg>
