<svg xmlns="http://www.w3.org/2000/svg" viewBox="0 0 95.26566 47.2071">
  <g id="a83b6853-4138-474a-8a73-578d54e7d948" data-name="图层 2">
    <g id="fd49066b-3557-4e73-a36a-d414c8613148" data-name="图层 1">
      <g>
        <path d="M10.68576,41.63532a4.12051,4.12051,0,0,1-1.44934-.77044c-4.123-3.94129,1.13214-8.56235,7.20285-11.23456V22.019c1.44965.86118,2.17414.9513,2.26489,1.08734l4.621-4.621-1.54035-3.896c13.591-4.71145,19.07233-6.52334,30.126-8.38089L49.91757,4.39631l3.26181-1.90265C60.60925,4.98533,67.54,5.61945,66.36246,11.82618c.31723-4.168-4.89285-5.7991-12.95661-8.064l-1.495.95133,2.94467,2.44629A178.0857,178.0857,0,0,0,23.82321,15.3596L25.092,18.80253l-4.80218,4.7568a20.79245,20.79245,0,0,0,18.07565-3.08041c.04535-.04535.18146-.0907.18146-.18143a13.13651,13.13651,0,0,0-1.5857-1.54058,4.22644,4.22644,0,0,1,3.89588,4.80242H39.67938A3.34378,3.34378,0,0,0,39.3168,21.43a22.95482,22.95482,0,0,1-21.42788,3.35251v5.88931c-3.30719,1.13242-9.15109,4.75678-9.106,8.24484a3.26356,3.26356,0,0,0,1.90289,2.71869Z" style="fill: #231815;fill-rule: evenodd"/>
        <path d="M38.27484,40.09467C30.981,43.85459,24.00467,46.79945,13.13205,47.2071-.86651,46.93528-3.04069,37.603,3.61872,27.86292,9.87027,18.03263,19.83716,9.10777,35.7381,3.53544,40.26816,1.95,47.109.04737,53.587.002c9.37756-.0907,18.48361,2.854,17.89456,11.77881-.3172,6.88593-10.23819,16.626-15.448,23.60239-2.26517,3.03537-2.62772,4.9833,1.17755,4.847,13.8172-.90539,26.45685-5.70755,38.05454-10.69085-7.79215,5.3002-48.655,25.55035-48.88175,11.73315a10.95263,10.95263,0,0,1,2.21979-5.5267A67.69969,67.69969,0,0,1,53.587,29.5847c2.76376-3.17145,9.64941-10.78217,11.96-15.35758,3.89648-8.60767-4.84726-9.06036-12.36759-11.73346L49.91757,4.39631l1.94825,1.81216c-11.00867,1.85755-16.49,3.66944-30.081,8.38089l1.54035,3.896-4.621,4.621c-.09075-.136-.81524-.22616-2.26489-1.08734v7.6113c-6.07071,2.67221-11.32586,7.29327-7.20285,11.23456a4.12051,4.12051,0,0,0,1.44934.77044h-.04535c7.475,4.21256,27.67948-1.54065,27.63443-1.54065Z" style="fill: #ee7826;fill-rule: evenodd"/>
      </g>
    </g>
  </g>
</svg>
