<svg xmlns="http://www.w3.org/2000/svg" viewBox="0 0 1108.72319 1081.00218">
  <g id="ed76373d-f1f2-4d33-951c-4d88f572c7bb" data-name="图层 2">
    <g id="a7eaf0e7-e926-49e8-97ad-262325fb6f43" data-name="Layer 1">
      <g id="efd38da2-188e-4e7e-ad67-229406d920cd" data-name="g2285">
        <path id="b4e8816b-7e40-4f93-b6d9-20344acc3b1c" data-name="path2277" d="M196.316,0H912.40719a196.17256,196.17256,0,0,1,196.316,196.3103V884.69918a196.171,196.171,0,0,1-196.316,196.303H196.316A196.16193,196.16193,0,0,1,0,884.69918V196.3103A196.16349,196.16349,0,0,1,196.316,0Z" style="fill: #00005b"/>
        <g id="b5e6cd56-fa38-4922-8b48-91d5b52bdd77" data-name="g2283">
          <path id="f4d8a36c-e3d3-4bb0-9a90-d9837e581481" data-name="path2279" d="M435.4438,646.87948H263.7687l-35.0236,108.9636a7.9717,7.9717,0,0,1-8.6526,6.4858H133.1824c-5.1921,0-6.493-2.5889-5.1921-8.2175L276.7404,326.898a148.18275,148.18275,0,0,1,4.7627-15.1311c2.1596-9.5184,3.8898-19.4576,3.8898-29.4109a4.69578,4.69578,0,0,1,3.8898-5.1849H409.0655c3.0254,0,5.62,1.3009,6.0493,3.8898L582.9002,754.97c1.2938,5.205,0,7.3589-4.7628,7.3589H481.7103a6.92074,6.92074,0,0,1-7.3515-5.1921ZM290.5778,554.77H407.7646c-2.5888-9.5097-6.4858-21.1876-10.8119-33.2862-4.3192-12.5495-8.2104-25.9504-12.5352-39.78661-4.7556-14.26659-8.6454-28.10259-13.4082-42.37509-4.7556-14.2668-8.6453-27.6735-12.5351-41.0818-3.8897-12.9714-6.9223-25.07-10.3755-35.88211h-.8659c-4.3263,19.88531-9.089,39.77931-15.5748,59.666-6.9137,22.052-13.8361,45.40641-21.1876,68.32571C304.8503,513.69709,297.4987,535.31979,290.5778,554.77Z" style="fill: #99f"/>
          <path id="f05a2fe8-87d1-4d5d-a5e0-4305fc0c8914" data-name="path2281" d="M937.05529,398.24029V681.46078c0,12.5496,0,23.3544.4221,33.3007.4365,9.5112.8658,18.1623,1.3009,25.5067.8658,7.3587,1.3024,11.6779,1.73021,16.4321.42929,4.3334-1.29371,6.0637-5.19061,6.0637h-79.1306a8.15449,8.15449,0,0,1-8.6526-5.1907c-.85719-3.897-1.723-7.781-2.5888-11.6779a35.18405,35.18405,0,0,1-.8716-9.5098c-14.6947,13.4067-32.8584,22.9179-52.3216,28.5451a187.54517,187.54517,0,0,1-51.4571,6.9079c-17.29789,0-34.15929-2.1667-50.15619-7.7795a98.44588,98.44588,0,0,1-39.35-25.5211,114.63735,114.63735,0,0,1-25.9432-44.9499,210.254,210.254,0,0,1-9.0875-65.7439V398.677a5.30207,5.30207,0,0,1,4.7612-6.0493h89.5062a5.30121,5.30121,0,0,1,6.0565,4.747V615.74558c0,20.3146,4.7555,36.3245,13.401,48.0024,8.65239,11.6636,26.81469,17.7128,47.573,17.7128a88.29407,88.29407,0,0,0,31.5647-5.6142,108.56594,108.56594,0,0,0,28.96721-15.1383v-262.468c0-3.0253,2.16669-5.1847,6.48579-5.1847H932.2925c2.15949-.4279,5.18489,1.295,5.18489,3.8912a1.6046,1.6046,0,0,0-.4221,1.2935Z" style="fill: #99f"/>
        </g>
      </g>
    </g>
  </g>
</svg>
