<svg xmlns="http://www.w3.org/2000/svg" viewBox="0 0 464.83595 408.21566">
  <g id="e44a18f7-251b-4802-a403-63e3dcd249be" data-name="图层 2">
    <g id="b6346eed-7f67-48e0-a578-e3d78acb25bd" data-name="Layer 4">
      <path d="M364.00087,362.96566c0,24.9912-57.46391,45.25-129.583,45.25s-130.58351-20.2588-130.58351-45.25,58.4644-45.25,130.58351-45.25S364.00087,337.97446,364.00087,362.96566Z" style="fill: #62e3ff"/>
      <g>
        <path d="M258.25087,407.46366v-23.8544c0-15.334,10.75-20,10.75-25.667,0-9.75-19.62061.9257-25.66651,7-9.20849,9.2509-8.16749,12.874-7.9448,28.3779.0576,4.0117.0742,9.3027.0678,14.8955C243.24746,408.19516,250.86316,407.93836,258.25087,407.46366Z" style="fill: #43afff"/>
        <path d="M198.37146,406.47346c-.0493-13.1689-.12059-30.9336-.12059-37.9053,0-13.375-19-21-28.125-21-4.62351,0-10.375.2383-10.375,2.6817,0,6.1933,17.375,9.8183,17.375,22.6933,0,7.0909-.10111,21.2715-.17481,30.668C183.77816,404.77326,190.93787,405.73516,198.37146,406.47346Z" style="fill: #43afff"/>
        <path d="M287.41787,372.44226c.16649-12.167,17.99949-18.001,17.333-21.917s-14.92681-3.2774-21.58641-.9561c-18.8863,6.583-16.9971,22.2901-16.9971,22.2901l-.5078,35.0498c7.6528-.6553,15.0317-1.544,22.0674-2.6465C287.63756,382.91,287.331,378.80066,287.41787,372.44226Z" style="fill: #43afff"/>
        <path d="M225.70006,372.32016c-7.57419-16.752-30.44919-22.502-30.44919-14.877,0,5.125,4.625,3.5,7.75,15,1.26069,4.6407,1.94429,19.8926,2.31449,34.6475,7.8222.6172,15.9126.9893,24.1997,1.0947C229.32506,393.60726,228.42026,378.37586,225.70006,372.32016Z" style="fill: #43afff"/>
      </g>
      <path d="M85.33487,247.29966c-8.05271,0-.03661-12.6465-.00051-18.333C85.47206,234.80936,93.38756,247.29966,85.33487,247.29966Z" style="fill: #62e3ff"/>
    </g>
    <g id="fcc8c4bc-d0a8-4f0d-8342-d1e0005da412" data-name="mainBody">
      <g>
        <path d="M283.67076,105.71566c40.27,0,50.5,28.5,50.5,50.5,0,29.9902-15.0898,51.7305-52.6401,57.3496a132.3506,132.3506,0,0,1-14.8599,1.3301c-22.66989.8203-45.3301.7099-64-.0098q-4.06483-.1494-7.98-.5c-39.18989-3.4297-67.02-21.1504-67.02-60.8398,0-15.0303,10.1602-47.8301,51.1602-47.8301,4.06,0,30.5698,2.5,56.16991,2.5C257.73087,108.21566,280.72106,105.71566,283.67076,105.71566Z" style="fill: #ffc09f"/>
        <path d="M463.61075,171.23566a1.503,1.503,0,0,1-.2701,2.98,2.5785,2.5785,0,0,1-.2797-.02c-20.4502-3.7798-50.21-7.94-101.03029-7.4702-.8897,2.9502-1.8897,5.7602-2.98,8.4404,17.3003.5796,64.81009,2.4297,103.55029,14.2798a1.50224,1.50224,0,0,1-.4302,2.9399,1.31316,1.31316,0,0,1-.43988-.0698c-39.27982-12.0103-87.81981-13.6602-103.96-14.1899-12.52,27.4902-36.75,39.6298-74.81981,45.3398l-1.4204-9.9004c37.5503-5.6191,52.6401-27.3594,52.6401-57.3496,0-22-10.23-50.5-50.5-50.5-2.9497,0-25.93989,2.5-48.66989,2.5-25.60011,0-52.10991-2.5-56.16991-2.5-41,0-51.1602,32.7998-51.1602,47.8301,0,39.6894,27.83011,57.4101,67.02,60.8398l-1.0898,10.9502c-46.5903-4.7197-74.29-21.1103-88.7202-47.31-49.54009,1.1899-77.65969,8.2197-98.27,13.3701-1.5.3799-2.96.7397-4.3799,1.0996a1.457,1.457,0,0,1-.3599.04,1.50156,1.50156,0,0,1-.3603-2.9599c1.4204-.3501,2.8803-.71,4.3701-1.0899,20.5503-5.1299,48.4902-12.1201,97.43989-13.4199a90.35417,90.35417,0,0,1-3.6596-8.3999c-19.0401-.1602-77.71,2.54-97.80029,7.5098a1.45968,1.45968,0,0,1-.3599.04,1.50157,1.50157,0,0,1-.3599-2.96c19.9097-4.9199,77.15969-7.6499,97.44-7.6001-4.56009-13.4199-6.58009-28.79-6.58009-45.9599,0-30.48,9.5-41.98,22.25-58.23-9.75-34.75,3.5-58.5,3.5-58.5s20.5-4.25,59.25,23.5c21-9,77-9.75,103.5-2,16.25-10.75,46-26,58-21.73,3.25,5.23,10.25,20.48,4.25,53.98,4.06979,7.35011,25.25,23,25.33009,67.25-.3399,16.3198-2.04009,30.1001-5.19,41.75C413.42075,163.29576,443.141,167.46566,463.61075,171.23566Z"/>
        <path d="M287.42076,322.96566c.1602,12.1699,18,18,17.33011,21.9199-.66991,3.9102-14.93021,3.2803-21.58981.9502-18.8804-6.5801-16.9903-22.29-16.9903-22.29l-.62989-43.1201s1.29009-23.21-7.29-23.21v70.5801c0,15.3398,10.75,20,10.75,25.6699,0,9.75-19.62011-.9199-25.66991-7-9.21-9.25-8.1602-28.8701-7.94-44.3799.21-14.9805-.14009-47.75-.14009-47.75l-6.25.1299s2.56009,71.5801-3.29981,84.6201c-7.5801,16.75-30.45019,22.5098-30.45019,14.8799,0-5.1299,5.62989-3.5,8.75-15,2.66019-9.7803,1.75-82.75,1.75-82.75s-7.33011,4.3301-7.33011,18c0,6.25-.16989,41.9902-.16989,52.6201,0,13.3799-19,21-28.12991,21-4.62009,0-10.37009-.2305-10.37009-2.6797,0-6.1904,17.37009-9.8203,17.37009-22.6904,0-11.1602-.2402-39.8701-.2402-39.8701a139.211,139.211,0,0,1-21.2598,1.5c-31.5,0-41.4599-20.0996-46.2002-31.3496-6.16989-14.6504-14.16989-21.5303-22.66989-27.0303-5.22021-3.3799-6.41991-7.3604-.37991-8.5,27.87991-5.25,35.0098,31.6201,53.62991,37.5,13.29,4.1904,30.37989,2.3799,38.87989-3.1201,1.12011-11.2598,9.2402-21,16-26.1299-.4297-.04-.85989-.0801-1.2798-.1299l1.0898-10.9502q3.91485.34575,7.98.5c18.6699.7197,41.33011.8301,64,.0098a132.3506,132.3506,0,0,0,14.8599-1.3301l1.4204,9.9004q-6.99028,1.0503-14.6201,1.8301c15.0898,9.5,19.41991,21.4199,19.41991,53.6699S287.32066,315.54576,287.42076,322.96566Z"/>
      </g>
    </g>
    <g id="b78b00b0-7071-4480-a615-c209d792ad7a" data-name="Layer 6">
      <path d="M196.66736,155.96566c0-17.627-9.5884-31.9165-21.41649-31.9165s-21.41651,14.2895-21.41651,31.9165,9.5884,29.9165,21.41651,29.9165S196.66736,173.59266,196.66736,155.96566Z" style="fill: #fff"/>
      <path d="M312.41736,155.96566c0-17.627-9.5884-31.9165-21.41649-31.9165s-21.41651,14.2895-21.41651,31.9165,9.5884,29.9165,21.41651,29.9165S312.41736,173.59266,312.41736,155.96566Z" style="fill: #fff"/>
      <path d="M231.58436,205.04966c-7.6548,0-13.25-6.5772-13.25-10a1.5,1.5,0,1,1,3,0c0,1.6924,4.2529,7,10.25,7,5.1987,0,9.083-3.6953,9.083-7a1.5,1.5,0,0,1,3,0C243.66736,199.77916,238.705,205.04966,231.58436,205.04966Z" style="fill: #b1423a"/>
      <circle cx="231.41736" cy="182.63266" r="5.167" style="fill: #b1423a"/>
      <ellipse cx="175.25086" cy="155.96566" rx="14.0835" ry="20.6665" style="fill: #b1423a"/>
      <ellipse cx="291.00086" cy="155.96566" rx="14.0835" ry="20.6665" style="fill: #b1423a"/>
    </g>
    <g id="e89ed31f-6d48-4fd5-a148-cbb3f44c6740" data-name="Suckers">
      <ellipse cx="95.50087" cy="221.00766" rx="3.375" ry="2.25" style="fill: #b0f5df"/>
      <ellipse cx="106.00087" cy="226.71666" rx="3.375" ry="2.25" style="fill: #b0f5df"/>
      <ellipse cx="112.41736" cy="234.34166" rx="3.375" ry="2.25" style="fill: #b0f5df"/>
      <ellipse cx="118.04236" cy="242.96666" rx="3.375" ry="2.25" style="fill: #b0f5df"/>
      <ellipse cx="124.45887" cy="251.09166" rx="3.375" ry="2.25" style="fill: #b0f5df"/>
      <ellipse cx="133.12587" cy="258.00866" rx="3.375" ry="2.25" style="fill: #b0f5df"/>
      <ellipse cx="145.25087" cy="262.50866" rx="3.375" ry="2.25" style="fill: #b0f5df"/>
      <ellipse cx="157.41736" cy="262.50866" rx="3.375" ry="2.25" style="fill: #b0f5df"/>
      <ellipse cx="169.62587" cy="260.59166" rx="3.375" ry="2.25" style="fill: #b0f5df"/>
    </g>
  </g>
</svg>
