<svg xmlns="http://www.w3.org/2000/svg" viewBox="0 0 438.32061 841.88983">
  <g id="a26139d7-c74b-472a-8bfe-9f83af04792d" data-name="图层 2">
    <g id="a5d83290-e511-43d0-94fe-ed1298f4404c" data-name="katman 1">
      <g>
        <path d="M133.59633,55.87142H187.396c6.19007,0,11.20811,6.06107,11.20811,13.53778V233.325c0,7.4767-5.018,13.53777-11.20811,13.53777h-53.7997c-6.19007,0-11.20811-6.06107-11.20811-13.53777V69.4092C122.38822,61.93249,127.40626,55.87142,133.59633,55.87142Zm0,392.67821H187.396c6.19007,0,11.20811,6.06107,11.20811,13.53778V626.00323c0,7.4767-5.018,13.53777-11.20811,13.53777h-53.7997c-6.19007,0-11.20811-6.06107-11.20811-13.53777V462.08741C122.38822,454.6107,127.40626,448.54963,133.59633,448.54963Z" style="fill: #ededed"/>
        <path d="M122.38822,296.41856h76.21592v90.1479H122.38822Z" style="fill: #fec900"/>
        <path d="M0,206.65263H76.21592v635.2372H0ZM242.24644,599.71278h76.21591V790.70412H242.24646Zm0-392.6782h76.21591V398.02591H242.24646Z" style="fill: #ededed"/>
        <path d="M242.24646,453.79541h76.21592v90.14793H242.24646Z" style="fill: #e21983"/>
        <path d="M362.10467,0h76.21594V635.23718H362.1047Z" style="fill: #ededed"/>
      </g>
    </g>
  </g>
</svg>
