<svg xmlns="http://www.w3.org/2000/svg" xmlns:xlink="http://www.w3.org/1999/xlink" viewBox="0 0 1256.00004 1255.09375">
  <defs>
    <linearGradient id="a02e96ae-5022-45b9-8da1-44ccff65bde3" x1="-2438.29963" y1="1291.64974" x2="-2201.12164" y2="-53.45354" gradientTransform="translate(2948.21068 8.49565)" gradientUnits="userSpaceOnUse">
      <stop offset="0" stop-color="#faae41"/>
      <stop offset="1" stop-color="#ef3e30"/>
    </linearGradient>
    <linearGradient id="b686e88c-f547-4c08-aa45-f2aa1a94dd9c" x1="641.17558" y1="20.28387" x2="467.60485" y2="1004.65238" gradientUnits="userSpaceOnUse">
      <stop offset="0" stop-color="#e39f3a"/>
      <stop offset="1" stop-color="#d33829"/>
    </linearGradient>
  </defs>
  <g id="af35974b-265e-4139-9e74-084f1d87e88f" data-name="图层 2">
    <g id="eb2f85f5-c573-4585-b245-3dfb4602e30e" data-name="Layer 1">
      <rect x="1.00004" y="0.09375" width="1255" height="1255" rx="278" transform="translate(1257.00008 1255.1875) rotate(180)" style="fill: url(#a02e96ae-5022-45b9-8da1-44ccff65bde3)"/>
      <path d="M1060.35,1026.92s-48.74-81.23-129.97-81.23c-78.53,0-124.56,81.23-282.97,81.23-350.64,0-517.24994-291.51-518.54-293.79a.0098.0098,0,0,0-.01-.01L0,594.41V278C0,124.46,124.46,0,278,0H526.14L709.69,186.14c.01,0,.01.01.02.02C1123.99,467.77,989.95,777.8,989.95,777.8S1107.74,910.48,1060.35,1026.92Z" style="fill: url(#b686e88c-f547-4c08-aa45-f2aa1a94dd9c)"/>
      <path d="M710.68779,186.23517c414.29732,281.61387,280.26,591.6599,280.26,591.6599s117.79041,132.68346,70.40346,249.12c0,0-48.74086-81.23477-129.97562-81.23477-78.527,0-124.56,81.23477-282.96778,81.23477-352.01733,0-518.54861-293.79908-518.54861-293.79908,316.959,208.859,533.44165,60.92608,533.44165,60.92608C520.31449,711.08647,216.50961,314.85689,216.50961,314.85689,481.31644,540.095,595.6052,599.17858,595.6052,599.17858c-68.41766-56.33483-259.95126-331.70864-259.95126-331.70864C488.90629,422.53125,793.27647,638.44205,793.27647,638.44205,880.09441,399.77661,710.68779,186.23517,710.68779,186.23517Z" style="fill: #fff"/>
    </g>
  </g>
</svg>
