<svg xmlns="http://www.w3.org/2000/svg" viewBox="0 0 197.67889 126.0458">
  <g id="bbd18b9e-c796-449a-a15b-ea801d96f07a" data-name="图层 2">
    <g id="a12b6317-de72-4c22-921c-1bcfdc2ff26e" data-name="图层 1">
      <g>
        <polygon points="116.75 96.072 116.75 58.412 158.541 81.468 158.541 122.204 116.75 96.072 116.75 96.072" style="fill: #231815;fill-rule: evenodd"/>
        <polygon points="120.067 92.997 120.067 63.023 157.214 83.775 157.214 116.055 120.067 92.997 120.067 92.997" style="fill: #952d8b;fill-rule: evenodd"/>
        <polygon points="116.75 58.412 156.551 38.429 197.015 60.717 160.531 83.006 116.75 58.412 116.75 58.412" style="fill: #231815;fill-rule: evenodd"/>
        <polygon points="123.383 59.181 155.888 43.04 190.382 61.486 159.204 79.932 123.383 59.181 123.383 59.181" style="fill: #952d8b;fill-rule: evenodd"/>
        <polygon points="157.878 82.237 158.541 122.204 197.679 99.915 197.015 60.717 157.878 82.237 157.878 82.237" style="fill: #231815;fill-rule: evenodd"/>
        <polygon points="161.858 83.775 161.858 116.055 193.699 97.609 193.699 64.561 161.858 83.775 161.858 83.775" style="fill: #952d8b;fill-rule: evenodd"/>
        <polygon points="57.048 56.874 57.048 19.214 98.839 42.272 98.839 83.006 57.048 56.874 57.048 56.874" style="fill: #231815;fill-rule: evenodd"/>
        <polygon points="60.365 53.8 60.365 23.825 97.513 44.578 97.513 77.626 60.365 53.8 60.365 53.8" style="fill: #4e83c4;fill-rule: evenodd"/>
        <polygon points="57.048 19.214 96.849 0 137.313 21.52 100.83 43.809 57.048 19.214 57.048 19.214" style="fill: #231815;fill-rule: evenodd"/>
        <polygon points="63.681 19.983 96.186 3.843 130.68 22.289 99.503 40.734 63.681 19.983 63.681 19.983" style="fill: #4e83c4;fill-rule: evenodd"/>
        <polygon points="98.176 43.04 98.839 83.006 137.977 60.717 137.313 21.52 98.176 43.04 98.176 43.04" style="fill: #231815;fill-rule: evenodd"/>
        <polygon points="102.156 44.578 102.156 76.857 133.997 58.412 133.997 26.131 102.156 44.578 102.156 44.578" style="fill: #4e83c4;fill-rule: evenodd"/>
        <polygon points="0 93.766 0 56.106 41.128 79.163 41.791 119.898 0 93.766 0 93.766" style="fill: #231815;fill-rule: evenodd"/>
        <polygon points="3.316 90.692 3.316 60.717 40.464 81.468 40.464 113.749 3.316 90.692 3.316 90.692" style="fill: #de7926;fill-rule: evenodd"/>
        <polygon points="0 56.106 39.801 36.123 80.265 58.412 43.118 80.701 0 56.106 0 56.106" style="fill: #231815;fill-rule: evenodd"/>
        <polygon points="5.97 56.874 39.137 40.734 73.632 59.181 42.454 77.626 5.97 56.874 5.97 56.874" style="fill: #de7926;fill-rule: evenodd"/>
        <polygon points="41.128 79.932 41.791 119.898 80.929 97.609 80.265 58.412 41.128 79.932 41.128 79.932" style="fill: #231815;fill-rule: evenodd"/>
        <polygon points="44.444 81.468 45.108 113.749 76.949 95.303 76.286 62.254 44.444 81.468 44.444 81.468" style="fill: #de7926;fill-rule: evenodd"/>
        <polygon points="60.365 99.146 60.365 61.486 101.492 84.543 102.156 126.046 60.365 99.146 60.365 99.146" style="fill: #231815;fill-rule: evenodd"/>
        <polygon points="63.681 96.841 63.681 66.097 100.83 86.848 100.83 119.898 63.681 96.841 63.681 96.841" style="fill: #ecd400;fill-rule: evenodd"/>
        <polygon points="60.365 61.486 100.166 42.272 140.631 63.792 103.482 86.08 60.365 61.486 60.365 61.486" style="fill: #231815;fill-rule: evenodd"/>
        <polygon points="66.335 63.023 99.503 46.883 133.997 65.328 102.156 83.006 66.335 63.023 66.335 63.023" style="fill: #ecd400;fill-rule: evenodd"/>
        <polygon points="101.492 85.312 102.156 126.046 140.631 102.989 140.631 63.792 101.492 85.312 101.492 85.312" style="fill: #231815;fill-rule: evenodd"/>
        <polygon points="104.81 86.848 105.473 119.129 137.313 101.452 136.651 68.403 104.81 86.848 104.81 86.848" style="fill: #ecd400;fill-rule: evenodd"/>
      </g>
    </g>
  </g>
</svg>
