<svg xmlns="http://www.w3.org/2000/svg" viewBox="0 0 200 200">
  <g id="e70ba748-2ecf-4abd-ac53-cc6b78fb6eb6" data-name="图层 2">
    <g id="bf3fde0b-41a6-43eb-9be9-15aae51b7a8c" data-name="图层 1">
      <g>
        <path d="M46.44321,0A14.49786,14.49786,0,0,0,31.96788,14.46609V121.54135a14.48321,14.48321,0,0,0,14.47533,14.48013H153.56458a14.48667,14.48667,0,0,0,14.47547-14.48013V14.46609A14.50133,14.50133,0,0,0,153.56458,0ZM40.08869,121.54135V14.46609a6.33486,6.33486,0,0,1,6.35452-6.32486H153.56458a6.34123,6.34123,0,0,1,6.34944,6.32486V121.54135a6.36752,6.36752,0,0,1-6.34944,6.37785H46.44321a6.36111,6.36111,0,0,1-6.35452-6.37785Z" style="fill: #5f93c3;fill-rule: evenodd"/>
        <path d="M78.41359,32.01193A14.46,14.46,0,0,0,63.97311,46.44825v107.11a14.465,14.465,0,0,0,14.44048,14.45956h107.1188A14.47323,14.47323,0,0,0,200,153.55828v-107.11a14.46823,14.46823,0,0,0-14.46761-14.43632ZM72.07326,153.55828v-107.11a6.33623,6.33623,0,0,1,6.34033-6.32611h107.1188a6.31918,6.31918,0,0,1,6.34165,6.32611v107.11a6.32034,6.32034,0,0,1-6.34165,6.343H78.41359a6.33733,6.33733,0,0,1-6.34033-6.343Z" style="fill: #5f93c3;fill-rule: evenodd"/>
        <path d="M14.46246,63.9927A14.47626,14.47626,0,0,0,0,78.44836V185.5417A14.45213,14.45213,0,0,0,14.46246,200H121.57229a14.46564,14.46564,0,0,0,14.46761-14.4583V78.44836A14.48985,14.48985,0,0,0,121.57229,63.9927ZM8.10405,185.5417V78.44836a6.35479,6.35479,0,0,1,6.35841-6.33655H121.57229c3.50284,0,6.35326,2.85625,6.35326-1.01065V178.1945c0,10.84808-2.85042,13.70169-6.35326,13.70169H14.46246a6.35688,6.35688,0,0,1-6.35841-6.35449Z" style="fill: #5f93c3;fill-rule: evenodd"/>
      </g>
    </g>
  </g>
</svg>
